<svg id="Solid" height="512" viewBox="0 0 512 512" width="512" xmlns="http://www.w3.org/2000/svg"><path d="m256 32a224 224 0 0 0 -158.392 382.392 224 224 0 0 0 316.784-316.784 222.535 222.535 0 0 0 -158.392-65.608zm0 32a8 8 0 1 1 -8 8 8 8 0 0 1 8-8zm-184 200a8 8 0 1 1 8-8 8 8 0 0 1 -8 8zm10.652-38.618a8 8 0 1 1 -15.759-2.764 192.259 192.259 0 0 1 155.725-155.725 8 8 0 1 1 2.764 15.76 176.214 176.214 0 0 0 -142.73 142.729zm149.348 118.618v-96h-24a8 8 0 0 1 0-16h24v-32a24.028 24.028 0 0 0 -24-24 8 8 0 0 1 0-16 40.045 40.045 0 0 1 40 40v32h8a8 8 0 0 1 0 16h-8v87.607c44.79-4.421 80-45.607 80-95.607 0-3.262-6.233-8-16-8s-16 4.738-16 8a8 8 0 0 1 -16 0c0-13.458 14.056-24 32-24s32 10.542 32 24c0 61.757-46.654 112-104 112a8 8 0 0 1 -8-8zm24 104a8 8 0 1 1 8-8 8 8 0 0 1 -8 8zm184-200a8 8 0 1 1 -8 8 8 8 0 0 1 8-8zm-1.391 32.12a8 8 0 0 1 6.5 9.262 192.259 192.259 0 0 1 -155.727 155.725 8 8 0 1 1 -2.764-15.76 176.214 176.214 0 0 0 142.73-142.729 8 8 0 0 1 9.261-6.498z"/></svg>